# xmcd
#
# Track frame offsets:
#	150
#	19762
#	39780
#	60860
#	80015
#	98722
#	122425
#	142410
#	159847
#	179487
#
# Disc length: 2612 seconds
#
# Revision: 0
# Processed by: cddbd v1.4PL0 Copyright (c) Steve Scherf et al.
# Submitted via: EasyCDDAExtractor 4.6.9.1
#
DISCID=750a320a
DTITLE=陳小春 - 頭號男友
DYEAR=2000
DGENRE=
TTITLE0=重色輕友
TTITLE1=她最好
TTITLE2=女人不該讓男人太累
TTITLE3=人的大腦會不會盪機
TTITLE4=需要醫
TTITLE5=愛情是一頭大象
TTITLE6=第一號女朋友
TTITLE7=安全感
TTITLE8=單身傻瓜
TTITLE9=妳好毒
EXTD=
EXTT0=
EXTT1=
EXTT2=
EXTT3=
EXTT4=
EXTT5=
EXTT6=
EXTT7=
EXTT8=
EXTT9=
PLAYORDER=
